# File created by Blade
# Date/Time:  Mon Sep 22 17:38:34 2014
# Frame Rate: 120.000 fps
#------------------------------------------------------
:FULLY-SPECIFIED
:DEGREES
1123
root 1.741020 37.500114 4.993948 -18.136178 -12.262909 7.808836
RightUpLeg 18.981634 -0.853234 -2.940334
RightLeg 2.086981 -0.000000 -0.000000
RightFoot -13.249446 -14.039353 9.771436
RightToeBase 12.591294 -0.000000 -0.000000
LeftUpLeg -37.857373 7.146503 0.957845
LeftLeg 22.632235 -0.000000 -0.000000
LeftFoot 22.591378 25.732984 -23.064450
LeftToeBase -0.336566 -0.000000 0.000000
Spine 28.060136 -3.833332 -5.401405
RightShoulder 3.936202 -26.311815 -12.906598
RightArm 22.603205 -19.597707 59.514157
RightForeArm 5.454931 0.000000 44.386041
RightHand -0.747956 -0.000000 -2.621952
RightHandThumb1 -24.326973 -0.000000 -32.862282
LeftShoulder -17.760291 27.536800 3.012058
LeftArm 58.334690 -40.743702 -64.066551
LeftForeArm 38.353719 -0.000000 54.956238
LeftHand -18.697948 0.000000 -22.939412
LeftHandThumb1 -26.253704 0.000000 33.147579
Head 17.616535 22.943824 -6.151511
1124
root 1.748855 37.497783 4.999585 -18.229827 -12.121286 7.780656
RightUpLeg 19.107478 -0.950889 -2.964920
RightLeg 2.097731 -0.000000 -0.000000
RightFoot -13.278685 -14.036923 9.815608
RightToeBase 12.937525 -0.000000 -0.000000
LeftUpLeg -38.660046 7.869236 0.237020
LeftLeg 26.455078 -0.000000 -0.000000
LeftFoot 22.770485 24.817750 -22.375992
LeftToeBase -0.644152 -0.000000 0.000000
Spine 28.215328 -3.920791 -5.402666
RightShoulder 3.886852 -26.278509 -12.840379
RightArm 22.449143 -19.495793 59.641744
RightForeArm 5.539269 -0.000000 44.481774
RightHand -0.776773 -0.000000 -2.313809
RightHandThumb1 -24.326973 -0.000000 -32.862282
LeftShoulder -17.715407 27.523391 2.984852
LeftArm 58.551497 -40.801497 -64.242814
LeftForeArm 38.443510 -0.000000 54.904017
LeftHand -18.666016 -0.000000 -22.875666
LeftHandThumb1 -26.253704 0.000000 33.147579
Head 17.429301 22.842461 -6.250922
1125
root 1.751302 37.493019 5.010538 -18.348739 -11.998562 7.704181
RightUpLeg 19.276088 -1.018491 -2.912473
RightLeg 2.102243 -0.000000 -0.000000
RightFoot -13.325246 -14.119906 9.800392
RightToeBase 12.656755 -0.000000 -0.000000
LeftUpLeg -39.494381 8.537996 -0.336395
LeftLeg 30.686364 -0.000000 -0.000000
LeftFoot 23.145648 23.524015 -21.446032
LeftToeBase -1.069209 -0.000000 0.000000
Spine 28.395488 -3.990742 -5.349533
RightShoulder 3.856689 -26.279729 -12.783777
RightArm 22.307249 -19.384502 59.742764
RightForeArm 5.677010 0.000000 44.585128
RightHand -0.640423 -0.000000 -2.456566
RightHandThumb1 -24.326973 -0.000000 -32.862282
LeftShoulder -17.674230 27.548238 2.972473
LeftArm 58.792472 -40.843263 -64.453755
LeftForeArm 38.530800 -0.000000 54.878073
LeftHand -18.607144 0.000000 -22.773725
LeftHandThumb1 -26.253704 0.000000 33.147579
Head 17.252738 22.740599 -6.315051
1126
root 1.749193 37.488226 5.027627 -18.509357 -11.884236 7.588226
RightUpLeg 19.521433 -1.055715 -2.805506
RightLeg 2.073122 -0.000000 -0.000000
RightFoot -13.340251 -14.241179 9.820927
RightToeBase 12.604894 -0.000000 -0.000000
LeftUpLeg -40.291070 9.125415 -0.809620
LeftLeg 35.188646 -0.000000 -0.000000
LeftFoot 23.378422 22.329047 -20.711377
LeftToeBase -1.017014 -0.000000 0.000000
Spine 28.618910 -4.030499 -5.250092
RightShoulder 3.817989 -26.315688 -12.711927
RightArm 22.184532 -19.300610 59.786964
RightForeArm 5.802075 -0.000000 44.678599
RightHand -0.425532 -0.000000 -2.615494
RightHandThumb1 -24.326973 -0.000000 -32.862282
LeftShoulder -17.613838 27.576728 3.001503
LeftArm 59.037618 -40.835124 -64.711040
LeftForeArm 38.669262 -0.000000 54.914232
LeftHand -18.705027 -0.000000 -22.682065
LeftHandThumb1 -26.253704 0.000000 33.147579
Head 17.087455 22.591060 -6.367895
1127
root 1.749284 37.485356 5.054464 -18.726426 -11.798298 7.492934
RightUpLeg 19.795110 -1.148271 -2.744609
RightLeg 2.110384 -0.000000 -0.000000
RightFoot -13.369719 -14.290559 9.829080
RightToeBase 12.578349 -0.000000 -0.000000
LeftUpLeg -41.000209 9.583637 -1.202376
LeftLeg 39.854569 -0.000000 -0.000000
LeftFoot 23.625520 21.344428 -20.159351
LeftToeBase -1.126044 -0.000000 0.000000
Spine 28.872277 -4.027900 -5.133964
RightShoulder 3.804929 -26.382377 -12.680624
RightArm 22.067528 -19.222647 59.831787
RightForeArm 5.858625 -0.000000 44.765322
RightHand -0.352444 -0.000000 -2.520449
RightHandThumb1 -24.326973 -0.000000 -32.862282
LeftShoulder -17.524881 27.590198 3.030690
LeftArm 59.215250 -40.808277 -64.914462
LeftForeArm 38.756019 -0.000000 54.971493
LeftHand -18.832543 -0.000000 -22.580194
LeftHandThumb1 -26.253704 0.000000 33.147579
Head 16.995691 22.528630 -6.341209
1128
root 1.748853 37.484314 5.090225 -19.004006 -11.764211 7.423517
RightUpLeg 20.122157 -1.230190 -2.707897
RightLeg 2.162110 -0.000000 -0.000000
RightFoot -13.404166 -14.326392 9.782951
RightToeBase 12.515029 -0.000000 -0.000000
LeftUpLeg -41.592661 10.001691 -1.531929
LeftLeg 44.602281 -0.000000 -0.000000
LeftFoot 23.894113 20.655497 -19.679726
LeftToeBase -1.067392 -0.000000 0.000000
Spine 29.153206 -3.976087 -5.055984
RightShoulder 3.829254 -26.528580 -12.641085
RightArm 22.015001 -19.118275 59.827526
RightForeArm 5.837750 -0.000000 44.858387
RightHand -0.206475 -0.000000 -2.822830
RightHandThumb1 -24.326973 -0.000000 -32.862282
LeftShoulder -17.457802 27.593188 3.105442
LeftArm 59.357665 -40.740551 -65.146801
LeftForeArm 38.944348 -0.000000 55.081768
LeftHand -18.879509 -0.000000 -22.641029
LeftHandThumb1 -26.253704 0.000000 33.147579
Head 16.925624 22.364349 -6.357999
1129
root 1.743534 37.483729 5.131916 -19.302751 -11.768188 7.341005
RightUpLeg 20.489363 -1.318094 -2.665053
RightLeg 2.191135 -0.000000 -0.000000
RightFoot -13.418650 -14.286469 9.784159
RightToeBase 12.522295 -0.000000 -0.000000
LeftUpLeg -42.101156 10.396667 -1.764004
LeftLeg 49.426572 -0.000000 -0.000000
LeftFoot 24.233496 20.096747 -19.495888
LeftToeBase -1.155777 -0.000000 0.000000
Spine 29.426245 -3.871912 -4.951280
RightShoulder 3.842216 -26.654372 -12.592552
RightArm 21.960359 -19.081165 59.793398
RightForeArm 6.084694 -0.000000 44.890479
RightHand -0.060591 0.000000 -2.736027
RightHandThumb1 -24.326973 -0.000000 -32.862282
LeftShoulder -17.397527 27.633978 3.174853
LeftArm 59.522041 -40.652922 -65.353462
LeftForeArm 39.040055 0.000000 55.188072
LeftHand -18.914145 -0.000000 -22.667434
LeftHandThumb1 -26.253704 0.000000 33.147579
Head 16.950633 22.184815 -6.314655
1130
root 1.732833 37.481721 5.186161 -19.650202 -11.878416 7.237814
RightUpLeg 20.922093 -1.378339 -2.587541
RightLeg 2.203701 -0.000000 -0.000000
RightFoot -13.412151 -14.215078 9.748018
RightToeBase 12.508193 -0.000000 -0.000000
LeftUpLeg -42.479252 10.608372 -1.832749
LeftLeg 54.267370 -0.000000 -0.000000
LeftFoot 24.191369 20.094594 -19.367059
LeftToeBase -0.363635 -0.000000 0.000000
Spine 29.721036 -3.706393 -4.776706
RightShoulder 3.839744 -26.748437 -12.604756
RightArm 21.943176 -19.161466 59.740081
RightForeArm 6.194945 -0.000000 44.867766
RightHand 0.072598 -0.000000 -2.864233
RightHandThumb1 -24.326973 -0.000000 -32.862282
LeftShoulder -17.357854 27.618592 3.228611
LeftArm 59.558674 -40.527878 -65.460570
LeftForeArm 39.085620 0.000000 55.310783
LeftHand -18.877527 0.000000 -22.708313
LeftHandThumb1 -26.253704 0.000000 33.147579
Head 17.021086 22.118435 -6.230615
1131
root 1.722610 37.478513 5.243996 -19.965546 -12.053433 7.135554
RightUpLeg 21.303705 -1.374694 -2.498346
RightLeg 2.252598 -0.000000 -0.000000
RightFoot -13.436204 -14.094184 9.733312
RightToeBase 12.477098 -0.000000 -0.000000
LeftUpLeg -42.813058 11.009550 -1.904339
LeftLeg 59.112211 -0.000000 -0.000000
LeftFoot 24.068708 20.040235 -19.268336
LeftToeBase 0.422631 -0.000000 -0.000000
Spine 29.949100 -3.531510 -4.580064
RightShoulder 3.842228 -26.863351 -12.641738
RightArm 21.988602 -19.281306 59.642622
RightForeArm 6.182161 -0.000000 44.817062
RightHand 0.164812 -0.000000 -3.013805
RightHandThumb1 -24.326973 -0.000000 -32.862282
LeftShoulder -17.365697 27.606761 3.241798
LeftArm 59.523301 -40.391542 -65.492997
LeftForeArm 39.189898 -0.000000 55.472825
LeftHand -18.868017 -0.000000 -22.903343
LeftHandThumb1 -26.253704 0.000000 33.147579
Head 17.149677 22.109458 -6.150842
1132
root 1.718993 37.476165 5.305607 -20.240891 -12.218642 7.094616
RightUpLeg 21.636973 -1.424091 -2.513055
RightLeg 2.301661 -0.000000 -0.000000
RightFoot -13.470516 -13.907620 9.649055
RightToeBase 12.504311 -0.000000 -0.000000
LeftUpLeg -43.106795 11.516418 -2.048891
LeftLeg 63.754848 -0.000000 -0.000000
LeftFoot 24.104284 20.203923 -19.025004
LeftToeBase 1.299323 -0.000000 -0.000000
Spine 30.083270 -3.399960 -4.467492
RightShoulder 3.870958 -26.966271 -12.701972
RightArm 22.075784 -19.460785 59.526718
RightForeArm 6.144130 0.000000 44.693179
RightHand 0.170809 0.000000 -3.022858
RightHandThumb1 -24.326973 -0.000000 -32.862282
LeftShoulder -17.420197 27.586295 3.215836
LeftArm 59.379473 -40.245704 -65.381074
LeftForeArm 38.985628 -0.000000 55.584104
LeftHand -18.805995 -0.000000 -22.820332
LeftHandThumb1 -26.253704 0.000000 33.147579
Head 17.337112 22.123533 -6.097362
